<?xml version="1.0" encoding="UTF-8"?>
<svg xmlns="http://www.w3.org/2000/svg" version="1.1" viewBox="0 0 540 560">
  <defs>
    <style>
      .cls-1 {
        fill: #f2f7f2;
      }

      .cls-1, .cls-2, .cls-3, .cls-4, .cls-5 {
        stroke-width: 1.4px;
      }

      .cls-1, .cls-3 {
        stroke: #27ae60;
      }

      .cls-2 {
        fill: #e8f1ff;
        stroke: #4a90e2;
      }

      .cls-6 {
        fill: #333;
        font-family: ArialMT, Arial;
        font-size: 21px;
        isolation: isolate;
      }

      .cls-3 {
        fill: #e9f7ef;
      }

      .cls-7 {
        fill: none;
        stroke: #555;
        stroke-width: 2px;
      }

      .cls-4 {
        fill: #555;
        stroke: #333;
      }

      .cls-5 {
        fill: #fef4e6;
        stroke: #e67e22;
      }
    </style>
  </defs>
  <!-- Generator: Adobe Illustrator 28.6.0, SVG Export Plug-In . SVG Version: 1.2.0 Build 709)  -->
  <g>
    <g id="_图层_1" data-name="图层_1">
      <rect class="cls-2" x="150" y="23.6" width="240" height="70" rx="10" ry="10"/>
      <text class="cls-6" transform="translate(219.1 63.6)"><tspan x="0" y="0">Data: (s, r)</tspan></text>
      <line class="cls-7" x1="270" y1="101.2" x2="270" y2="141.2"/>
      <polygon class="cls-4" points="270 141.2 264 131.2 276 131.2 270 141.2"/>
      <rect class="cls-5" x="150" y="151.4" width="240" height="70" rx="10" ry="10"/>
      <text class="cls-6" transform="translate(183.8 191.4)"><tspan x="0" y="0">z-score preprocess</tspan></text>
      <line class="cls-7" x1="270" y1="227.1" x2="270" y2="267.1"/>
      <polygon class="cls-4" points="270 267.1 264 257.1 276 257.1 270 267.1"/>
      <rect class="cls-3" x="150" y="274.8" width="240" height="90" rx="12" ry="12"/>
      <text class="cls-6" transform="translate(204.7 315.2)"><tspan x="0" y="0">GKR fit → f(s)</tspan></text>
      <text class="cls-6" transform="translate(229.2 335.2)"><tspan x="0" y="0">and Q(s)</tspan></text>
      <line class="cls-7" x1="270" y1="373.8" x2="270" y2="413.8"/>
      <polygon class="cls-4" points="270 424.9 264 414.9 276 414.9 270 424.9"/>
      <rect class="cls-1" x="150" y="430.5" width="240" height="110" rx="12" ry="12"/>
      <text class="cls-6" transform="translate(204.3 492.1)"><tspan x="0" y="0">Compute FIM</tspan></text>
      <text/>
    </g>
  </g>
</svg>